# xmcd
#
# Track frame offsets:
#	183
#	18783
#	35815
#	57298
#	78455
#	96455
#	117718
#	136375
#	162468
#	179283
#
# Disc length: 2572 seconds
#
# Revision: 1
# Processed by: cddbd v1.5.1PL0 Copyright (c) Steve Scherf et al.
# Submitted via: audiograbber 1.83.01
#
DISCID=8b0a0a0a
DTITLE=Little Milton - Movin' To The Country
DYEAR=1987
DGENRE=Blues
TTITLE0=You Just Can't Take My Blues
TTITLE1=Movin' To The Country
TTITLE2=His Old Lady And My Old Lady
TTITLE3=You're So Cold
TTITLE4=Just Because You See Me Smilin'
TTITLE5=Room 244
TTITLE6=Lovin' On Borrowed Time
TTITLE7=A Possum In My Tree
TTITLE8=At This Moment
TTITLE9=Have You Ever Loved A Woman
EXTD=Digitally remastered direct from original analog master tapes\n\nMalaco Re
EXTD=cords Inc 1987
EXTT0=
EXTT1=
EXTT2=
EXTT3=
EXTT4=
EXTT5=
EXTT6=
EXTT7=
EXTT8=
EXTT9=
PLAYORDER=
